HIERARCHY
ROOT Hips
{
	OFFSET 0.000000 0.000000 0.000000
	CHANNELS 6 Xposition Yposition Zposition Xrotation Yrotation Zrotation
	JOINT LeftUpLeg_virtual
	{
		OFFSET 0.000000 0.000000 0.000000
		CHANNELS 3 Xrotation Yrotation Zrotation
		JOINT LeftUpLeg
		{
			OFFSET 11.394100 -6.187798 -0.413800
			CHANNELS 3 Xrotation Yrotation Zrotation
			JOINT LeftLeg
			{
				OFFSET 0.430247 -32.302673 3.732800
				CHANNELS 3 Xrotation Yrotation Zrotation
				JOINT LeftFoot
				{
					OFFSET -0.430247 -48.264931 -6.423300
					CHANNELS 3 Xrotation Yrotation Zrotation
					JOINT LeftToeBase
					{
						OFFSET 4.230900 -16.068199 23.438400
						CHANNELS 3 Xrotation Yrotation Zrotation
						JOINT LeftToe_End
						{
							OFFSET 4.510700 0.695400 19.974600
							CHANNELS 3 Xrotation Yrotation Zrotation
							End Site
							{
								OFFSET 0 0 0
							}
						}
					}
				}
			}
		}
	}
	JOINT RightUpLeg_virtual
	{
		OFFSET 0.000000 0.000000 0.000000
		CHANNELS 3 Xrotation Yrotation Zrotation
		JOINT RightUpLeg
		{
			OFFSET -11.333700 -6.187798 -0.413800
			CHANNELS 3 Xrotation Yrotation Zrotation
			JOINT RightLeg
			{
				OFFSET -0.430392 -32.302628 3.733000
				CHANNELS 3 Xrotation Yrotation Zrotation
				JOINT RightFoot
				{
					OFFSET 0.430392 -48.264973 -6.423500
					CHANNELS 3 Xrotation Yrotation Zrotation
					JOINT RightToeBase
					{
						OFFSET -4.230900 -16.068199 23.438400
						CHANNELS 3 Xrotation Yrotation Zrotation
						JOINT RightToe_End
						{
							OFFSET -4.510700 0.695400 19.974600
							CHANNELS 3 Xrotation Yrotation Zrotation
							End Site
							{
								OFFSET 0 0 0
							}
						}
					}
				}
			}
		}
	}
	JOINT Spine_virtual
	{
		OFFSET 0.000000 0.000000 0.000000
		CHANNELS 3 Xrotation Yrotation Zrotation
		JOINT Spine
		{
			OFFSET -0.002400 12.777504 0.315300
			CHANNELS 3 Xrotation Yrotation Zrotation
			JOINT Spine1
			{
				OFFSET -0.002067 5.816869 0.032633
				CHANNELS 3 Xrotation Yrotation Zrotation
				JOINT Spine1_split
				{
					OFFSET -0.002067 5.816869 0.032633
					CHANNELS 3 Xrotation Yrotation Zrotation
					JOINT Spine2
					{
						OFFSET -0.002067 5.816869 0.032633
						CHANNELS 3 Xrotation Yrotation Zrotation
						JOINT Neck_virtual
						{
							OFFSET 0.000000 0.000000 0.000000
							CHANNELS 3 Xrotation Yrotation Zrotation
							JOINT Neck
							{
								OFFSET -0.003700 21.199493 -0.826900
								CHANNELS 3 Xrotation Yrotation Zrotation
								JOINT Head
								{
									OFFSET 0.000000 20.442200 4.834800
									CHANNELS 3 Xrotation Yrotation Zrotation
									JOINT HeadTop_End
									{
										OFFSET 0.000000 34.668396 4.968400
										CHANNELS 3 Xrotation Yrotation Zrotation
										End Site
										{
											OFFSET 0 0 0
										}
									}
								}
							}
						}
						JOINT LeftShoulder_virtual
						{
							OFFSET 0.000000 0.000000 0.000000
							CHANNELS 3 Xrotation Yrotation Zrotation
							JOINT LeftShoulder
							{
								OFFSET 3.288150 8.794197 -1.372250
								CHANNELS 3 Xrotation Yrotation Zrotation
								JOINT LeftShoulder_split
								{
									OFFSET 3.288150 8.794197 -1.372250
									CHANNELS 3 Xrotation Yrotation Zrotation
									JOINT LeftArm
									{
										OFFSET 11.953299 -2.279007 -0.146200
										CHANNELS 3 Xrotation Yrotation Zrotation
										JOINT LeftForeArm
										{
											OFFSET 18.448900 0.000000 0.000000
											CHANNELS 3 Xrotation Yrotation Zrotation
											JOINT LeftHand
											{
												OFFSET 29.527798 0.000000 0.000000
												CHANNELS 3 Xrotation Yrotation Zrotation
												End Site
												{
													OFFSET 0 0 0
												}
											}
										}
									}
								}
							}
						}
						JOINT RightShoulder_virtual
						{
							OFFSET 0.000000 0.000000 0.000000
							CHANNELS 3 Xrotation Yrotation Zrotation
							JOINT RightShoulder
							{
								OFFSET -3.249400 8.794197 -1.372250
								CHANNELS 3 Xrotation Yrotation Zrotation
								JOINT RightShoulder_split
								{
									OFFSET -3.249400 8.794197 -1.372250
									CHANNELS 3 Xrotation Yrotation Zrotation
									JOINT RightArm
									{
										OFFSET -11.953299 -2.279007 -0.146200
										CHANNELS 3 Xrotation Yrotation Zrotation
										JOINT RightForeArm
										{
											OFFSET -18.448900 0.000000 0.000000
											CHANNELS 3 Xrotation Yrotation Zrotation
											JOINT RightHand
											{
												OFFSET -29.527802 0.000000 0.000000
												CHANNELS 3 Xrotation Yrotation Zrotation
												End Site
												{
													OFFSET 0 0 0
												}
											}
										}
									}
								}
							}
						}
					}
				}
			}
		}
	}
}
MOTION
Frames: 4
Frame Time: 0.03333333
12.757874 104.305817 -17.388477 0.000000 0.000000 0.000000 -1.060151 -11.945775 0.394093 -11.461338 16.428111 -0.938769 13.147785 5.180596 4.480221 -0.044786 17.510848 -4.320580 1.071205 -2.801302 1.683560 0.000000 0.000000 0.000000 -0.239497 -9.840483 0.284217 -17.462150 -6.044226 -5.595438 9.877222 7.449148 -2.079190 -4.322438 -9.231035 10.222292 8.255632 5.328677 -18.076386 0.000000 0.000000 0.000000 -3.606173 -4.924081 -0.539737 3.971506 1.629599 -0.282949 -0.755850 -3.187896 -0.454320 0.164745 -0.252817 -0.005254 0.000000 0.000000 0.000000 -0.351097 -0.125943 -1.059875 3.229875 14.034800 9.627499 -8.222751 -10.927046 -31.246411 0.000000 0.000000 0.000000 -1.219001 -2.329055 -0.982136 1.835547 -6.637146 -12.211316 1.876235 -2.179725 -3.838439 -8.649259 -6.781571 -59.193698 2.871261 -17.476893 -2.049161 0.000000 0.000000 0.000000 -1.078035 -1.829581 -0.776950 2.810798 -2.590640 17.532466 -3.023339 0.895100 0.322878 6.966677 -0.496119 65.173740 -1.493540 14.569111 3.974566 0.000000 0.000000 0.000000 
13.277133 104.344559 -17.203686 0.000000 0.000000 0.000000 -1.007607 -13.047881 0.261666 -11.301186 16.512220 -1.326573 13.091307 5.236421 4.649657 -0.077502 17.905954 -4.061452 0.840709 -2.655054 1.710461 0.000000 0.000000 0.000000 -0.201104 -10.824893 0.144705 -17.604415 -5.745250 -5.491566 9.691269 7.834608 -2.089887 -4.489545 -9.261189 9.777416 8.296474 5.236957 -17.827193 0.000000 0.000000 0.000000 -3.612985 -5.752007 -0.716903 3.862244 1.463699 -0.341642 -0.734599 -3.430884 -0.461844 0.171886 -0.248454 -0.013378 0.000000 0.000000 0.000000 -0.344324 -0.371588 -1.066587 3.213491 14.678688 9.762766 -8.642956 -10.214743 -32.140866 0.000000 0.000000 0.000000 -1.197731 -2.581007 -1.008927 1.851047 -7.048649 -12.543245 1.797082 -2.102612 -3.678862 -9.308311 -8.065834 -59.739888 3.107633 -17.850341 -1.968039 0.000000 0.000000 0.000000 -1.087094 -2.059390 -0.784384 2.750997 -2.508486 17.802873 -2.888173 0.851720 0.189041 6.434793 -0.587281 65.902986 -1.033801 14.769775 3.632765 0.000000 0.000000 0.000000 
13.747340 104.384628 -17.024677 0.000000 0.000000 0.000000 -0.920797 -14.091465 0.126288 -11.218874 16.611350 -1.659149 13.037852 5.277805 4.827845 -0.071034 18.271673 -3.815103 0.632920 -2.518381 1.735219 0.000000 0.000000 0.000000 -0.122389 -11.774511 0.003657 -17.713320 -5.501626 -5.369207 9.425255 8.110821 -2.086067 -4.618020 -9.329634 9.266150 8.353892 5.130517 -17.502271 0.000000 0.000000 0.000000 -3.576294 -6.538847 -0.896522 3.782473 1.278874 -0.473797 -0.688360 -3.668655 -0.458141 0.183578 -0.232990 -0.020733 0.000000 0.000000 0.000000 -0.300311 -0.612290 -1.063705 3.141756 15.299467 9.902060 -9.183001 -9.611123 -32.845902 0.000000 0.000000 0.000000 -1.134996 -2.825836 -1.020941 1.856753 -7.498693 -12.815433 1.725478 -2.019497 -3.576463 -9.861709 -9.609456 -60.264269 3.370120 -18.473519 -1.832137 0.000000 0.000000 0.000000 -1.046514 -2.283250 -0.779751 2.669871 -2.446631 18.132766 -2.783739 0.796593 0.011700 5.811922 -0.648932 66.598832 -0.461021 14.901174 3.282051 0.000000 0.000000 0.000000 
14.161743 104.429749 -16.857597 0.000000 0.000000 0.000000 -0.774350 -15.034614 0.000822 -11.230599 16.735241 -1.931448 12.963942 5.291077 5.009272 -0.038414 18.578282 -3.578184 0.497490 -2.394906 1.783134 0.000000 0.000000 0.000000 0.008650 -12.671197 -0.127259 -17.809776 -5.287112 -5.258372 9.083597 8.303365 -2.066018 -4.577511 -9.410402 8.819538 8.292746 5.048116 -17.117736 0.000000 0.000000 0.000000 -3.472515 -7.268188 -1.064295 3.711688 1.066658 -0.692752 -0.621094 -3.900682 -0.445437 0.189634 -0.214032 -0.021547 0.000000 0.000000 0.000000 -0.226158 -0.845513 -1.054575 3.024048 15.888842 10.060280 -9.773284 -9.116143 -33.357599 0.000000 0.000000 0.000000 -1.035129 -3.062278 -1.018018 1.853490 -7.965788 -13.009064 1.656244 -1.933193 -3.519454 -10.308877 -11.365605 -60.768835 3.659495 -19.374474 -1.644520 0.000000 0.000000 0.000000 -0.961805 -2.499742 -0.769323 2.567980 -2.429174 18.511156 -2.702958 0.710769 -0.210776 5.128445 -0.700332 67.239913 0.218647 14.991335 2.920104 0.000000 0.000000 0.000000 
